<?xml version="1.0" encoding="utf-8"?>
<!-- Generator: Adobe Illustrator 27.3.1, SVG Export Plug-In . SVG Version: 6.00 Build 0)  -->
<svg version="1.1" id="Layer_1" xmlns="http://www.w3.org/2000/svg" xmlns:xlink="http://www.w3.org/1999/xlink" x="0px" y="0px"
	 viewBox="0 0 640 480" style="enable-background:new 0 0 640 480;" xml:space="preserve">
<style type="text/css">
	.st0{fill:#F91919;}
	.st1{enable-background:new    ;}
	.st2{fill:#1E2349;}
	.st3{opacity:0.96;fill:#1E2349;stroke:#000000;stroke-width:0.25;stroke-miterlimit:10;enable-background:new    ;}
</style>
<g id="Layer_1_00000036243968785253715110000003224057283277653132_">
	<path class="st0" d="M233.2,83c4.8-0.9,10-0.8,15.3-0.8c7.4,0,14.7,0.1,22,0.2c19,0.2,38,0.3,57,0.5c23.6,0.2,47.3,0.4,70.9,0.6
		l39-48v-5.1c-16.6,0-33.2,0-49.8,0.1c-34.2,0-68.4,0.1-102.6,0.1c-28.6,0-57.1,0-85.7,0c-8,0-16.1-1.2-23.3,2.9
		c-4.1,2.3-8,5.3-10.4,9.4c-3.1,5-3.7,11.1-3.6,16.9c0.1,13.7,0.3,27.3,0.3,40.9c0,33.2,0,66.4,0,99.6c0,34.1,0.1,68.1,0.1,102.2
		c0,11.7,0,23.4,0.1,35.1c0,11.5-1.7,24.4,4.5,34.4c2.1,3.4,4.7,6.6,8.2,8.5c7.3,3.9,17.2,2,25.4,2c5.7,0,11.3,0,17,0
		c15,0,30.1,0,45.1,0c36.3,0,72.5,0,108.8,0c18.9,0,37.8,0,56.6,0c9.4,0,18.8-0.4,28.1,0c7.9,0.3,15.1,1.2,22.3-3
		c12.8-7.3,10.9-21.1,10.9-33.5c0-13.4,0-26.7,0-40.1c0-33.5,0-67,0-100.5c0-16.1,0-32.2,0-48.4l-180,0.5l-33,39v7l162-1
		c0,28.6,0,57.1,0,85.7c0,8.9,1.5,19.8-1.2,28.2c-1.2,3.6-3.4,7-6.6,9c-4.7,2.9-10.1,2.1-15.4,2c-6.5-0.1-13,0.1-19.4,0.2
		c-12.9,0.1-25.9,0.1-38.8,0.2c-35.2,0.2-70.4,0.4-105.6,0.5c-8,0-18.6,2.1-25.9-1.4c-2.9-1.4-5.3-3.8-7-6.5c-6.8-10.5-4-26-4-37.8
		c0-14.3-0.1-28.7-0.1-43c-0.1-37-1.1-74.2-0.3-111.2c0.2-7-0.8-14-0.1-21c0.6-5.7,2.2-11.4,5.6-16C223.4,86.3,228.1,84,233.2,83z"
		/>
	<g class="st1">
		<path class="st2" d="M186.2,412.1v13.5h-3.3l-0.8-3.1c-1.7,2.6-3.8,3.7-7.3,3.7c-6.9,0-11.2-4.8-11.2-12.6
			c0-7.8,4.7-12.9,11.9-12.9c5.3,0,9.4,3,10.5,7.9l-5.3,0.3c-0.6-2.3-2.5-3.6-5.2-3.6c-4,0-6.4,3-6.4,7.9c0,5.3,2.4,8.4,6.4,8.4
			c3.1,0,5.5-1.9,6-5h-6v-4.5H186.2z"/>
		<path class="st2" d="M195.7,408l-0.1,3.1c1-2.9,2.3-3.7,6.1-3.6v4.9c-0.6-0.1-0.9-0.1-1.3-0.1c-1.8,0-3.3,0.8-3.8,2.1
			c-0.5,1.2-0.7,2.8-0.7,6.2v5h-5.2V408H195.7z"/>
		<path class="st2" d="M222.3,416.9c0,5.3-4,9.2-9.4,9.2c-5.5,0-9.4-3.8-9.4-9.3c0-5.5,3.9-9.3,9.4-9.3
			C218.5,407.5,222.3,411.3,222.3,416.9z M208.8,416.8c0,3.3,1.5,5.2,4.2,5.2c2.6,0,4.1-1.9,4.1-5.1c0-3.4-1.5-5.3-4.2-5.3
			C210.3,411.6,208.8,413.5,208.8,416.8z"/>
		<path class="st2" d="M229,425.6l-5.3-17.7h5.3l1.5,5.8c0.4,1.6,1,4.2,1.2,5.7c0.5-2.6,1-4.7,1.2-5.7l1.5-5.8h4.5l1.6,5.8
			c0.7,2.7,1,4.2,1.2,5.7c0.3-1.8,0.6-3.4,1.1-5.7l1.4-5.8h5.4l-5,17.7h-5l-1.6-6.2c-0.5-2.1-0.8-3.6-1.3-5.9l-0.2,0.8
			c-0.1,0.6-0.3,1.1-0.4,1.7l-0.4,1.7c-0.1,0.5-0.3,1.1-0.4,1.7l-1.5,6.2H229z"/>
		<path class="st2" d="M257.5,405.5h-5.2v-4.3h5.2V405.5z M257.5,425.6h-5.2V408h5.2V425.6z"/>
		<path class="st2" d="M267.1,408v1.7c1.9-1.8,3-2.2,4.8-2.2c3.8,0,6.2,2.6,6.2,6.7v11.5h-5.2V416c0-1.8-0.1-2.5-0.5-3.1
			c-0.4-0.7-1.2-1-2.1-1c-0.9,0-1.7,0.3-2.2,1c-0.6,0.7-0.8,1.4-0.8,2.9v9.9h-5.2V408H267.1z"/>
		<path class="st2" d="M299.5,408.1v15.9c0,2.9-0.4,4.2-1.6,5.4c-1.6,1.6-4,2.4-7.1,2.4c-4.9,0-7.9-2-8.3-5.6h5.4
			c0.4,1.1,1.4,1.6,3.1,1.6c1.1,0,1.9-0.3,2.5-0.7c0.8-0.6,1-1.3,1-3.1v-1.2c-1.5,1.4-2.7,1.9-4.7,1.9c-4.6,0-8-3.5-8-8.5
			c0-5,3.4-8.7,7.8-8.7c2.3,0,3.8,0.8,5.2,2.7l-0.1-2.2H299.5z M286.7,416.1c0,2.6,1.6,4.4,3.9,4.4c2.4,0,3.9-1.8,3.9-4.5
			c0-2.6-1.6-4.3-3.9-4.3C288.3,411.7,286.7,413.4,286.7,416.1z"/>
		<path class="st2" d="M319.4,425.6l-6.6-24.4h5.5l2.6,10.9c0.5,2,0.7,3.2,1.4,6.1c0.4-2.8,0.7-4.2,1-6.1l2.3-10.9h5.3l2.3,11.1
			c0.5,2.4,0.7,3.7,1.1,5.9c0.2-0.9,0.2-1.2,0.4-1.9c0-0.3,0.1-0.7,0.3-1.3l0.2-1l0.4-1.8l2.7-11.1h5.5l-6.8,24.4h-5.1l-2.2-10.2
			c-0.5-2.5-1.1-5.2-1.2-6.3c-0.5,2.6-0.8,4.2-1.2,6.3l-2.3,10.2H319.4z"/>
		<path class="st2" d="M351.4,405.5h-5.2v-4.3h5.2V405.5z M351.4,425.6h-5.2V408h5.2V425.6z"/>
		<path class="st2" d="M364.9,411.8h-3.2v6.9c0,2.8,0,2.9,1.3,3h1.9v3.9h-3.2c-4.2,0-5.3-1.2-5.2-5.7v-8H354v-3.7h2.5v-5.6h5.2v5.6
			h3.2V411.8z"/>
		<path class="st2" d="M373.6,409.5c1.5-1.4,2.9-2,4.7-2c1.8,0,3.4,0.7,4.5,1.9c1.1,1.2,1.6,2.7,1.6,5.4v10.9h-5.2v-9.9
			c0-1.6-0.1-2.3-0.6-2.9c-0.4-0.6-1.2-0.9-2-0.9c-0.9,0-1.7,0.3-2.3,0.9c-0.6,0.6-0.7,1.1-0.7,3v9.9h-5.2v-24.4h5.2V409.5z"/>
		<path class="st2" d="M405.7,425.6h-5.5v-24.4h5.5V425.6z"/>
		<path class="st2" d="M427.3,425.6h-5v-1.9c-1.3,1.7-2.7,2.4-4.9,2.4c-4.6,0-7.8-3.7-7.8-9.3c0-5.6,3.1-9.4,7.9-9.4
			c1.9,0,3.3,0.5,4.5,1.8v-8h5.2V425.6z M414.8,416.8c0,3.1,1.5,5.1,3.7,5.1c2.2,0,3.7-2,3.7-5c0-3.1-1.5-5.2-3.7-5.2
			C416.3,411.6,414.8,413.7,414.8,416.8z"/>
		<path class="st2" d="M436.2,418.3c0.3,2.4,1.8,3.7,4,3.7c1.4,0,2.4-0.5,3.1-1.6h5.3c-1,3.4-4.3,5.6-8.5,5.6
			c-5.5,0-9.1-3.7-9.1-9.3c0-5.5,3.7-9.3,9-9.3c3.7,0,6.6,1.9,7.9,5.2c0.6,1.5,0.9,3.2,0.9,5.6H436.2z M443.4,414.6
			c-0.2-2.1-1.4-3.2-3.4-3.2s-3.3,1.1-3.7,3.2H443.4z"/>
		<path class="st2" d="M452.4,413.5c0.3-4.1,2.9-6,7.8-6c2.7,0,4.7,0.6,6.1,1.8c1.3,1.1,1.8,2.6,1.8,5.2v8.1c0,1.8,0.1,2.2,0.7,3
			h-5.3c-0.2-0.6-0.2-0.7-0.4-1.4c-1.7,1.4-3,1.9-5,1.9c-3.9,0-6.5-2.2-6.5-5.5c0-3.3,2.1-5,7-5.9l2.8-0.5c1.2-0.2,1.6-0.5,1.6-1.2
			c0-1-1-1.6-2.7-1.6c-1.9,0-2.9,0.7-3.1,2.1H452.4z M463.1,417.2c-0.5,0.2-1,0.4-1.9,0.5l-1.9,0.4c-1.9,0.4-2.7,1.1-2.7,2.1
			c0,1.2,1,1.9,2.6,1.9c1.7,0,3-0.7,3.8-2.2V417.2z"/>
		<path class="st2" d="M482.5,413.3c-0.2-1.3-1.3-2-3-2c-1.5,0-2.5,0.6-2.5,1.5c0,0.7,0.5,1,2.2,1.4l3.3,0.7c2.2,0.4,3.3,0.9,4,1.7
			c0.8,0.8,1.3,2.1,1.3,3.5c0,3.7-3,6.1-7.9,6.1c-4.9,0-7.9-2.3-8.2-6.2h4.9c0.3,1.7,1.4,2.5,3.5,2.5c1.6,0,2.7-0.7,2.7-1.7
			c0-0.8-0.6-1.3-2-1.6l-3.2-0.7c-3.9-0.8-5.4-2.3-5.4-5.1c0-3.5,2.8-5.7,7.5-5.7c4.5,0,7.3,2,7.8,5.8H482.5z"/>
	</g>
</g>
<g id="Layer_4">
	<path class="st3" d="M382,90.7v189.5c0,0.5-0.4,0.8-0.8,0.8H345c0,0,0-27.2,0-28.7c0-20.4,0-40.8,0-61.3c0-18.5,0-36.9,0-55.4
		c0-4.6-0.1-9.3,0-13.9c0-0.5-0.4-0.9-0.9-0.8c-5.5,0.2-10.6,0.3-16,1.6c-31.4,7.7-55.3,30.1-67.7,59.5c-1.6,3.8-3.1,7.8-4,11.8
		c-4.6,20.3,2.3,46.2,15.6,62.2c8.1,9.7,18.9,18.4,29.8,24.6c8.1,4.6,17.3,7.9,26.7,8.4c7.1,0.4,14.3,0,21.4,0
		c0.5,0,0.8,0.4,0.8,0.8c0.1,10.5,0.2,20.9,0.3,31.4c0,0.5-0.4,0.9-0.9,0.8c-10.1-0.4-20.5-1-30.5-2.4c-8.7-1.2-17-3.7-25.1-7.1
		c-15.5-6.5-29.7-16.2-41.6-28.1c-7.1-7.2-13.4-15.1-18.7-23.7c-17.8-29.1-19.2-67.7-6.4-98.9c0.3-0.8,0.6-1.6,1-2.3
		c0.1-0.3,0.3-0.6,0.4-0.9c2.4-5.2,5.2-10.2,8.5-15c8.8-12.7,20.6-23.5,33.4-32.2c12.8-8.6,27.2-17,42.6-19.6
		c5.7-0.9,11.4-1.1,17.1-1.1C335.1,90.7,382,90.5,382,90.7z"/>
</g>
</svg>
