<?xml version="1.0" encoding="utf-8"?>
<!-- Generator: Adobe Illustrator 27.3.1, SVG Export Plug-In . SVG Version: 6.00 Build 0)  -->
<svg version="1.1" id="Layer_1" xmlns="http://www.w3.org/2000/svg" xmlns:xlink="http://www.w3.org/1999/xlink" x="0px" y="0px"
	 viewBox="0 0 640 480" style="enable-background:new 0 0 640 480;" xml:space="preserve">
<style type="text/css">
	.st0{fill:#F91919;}
	.st1{fill:#1E2349;}
	.st2{font-family:'FONTSPRINGDEMO-NimbusSanBold';}
	.st3{font-size:42.6707px;}
	.st4{opacity:0.96;fill:#1E2349;stroke:#000000;stroke-width:0.25;stroke-miterlimit:10;enable-background:new    ;}
</style>
<g id="Layer_1_00000039853095404743716930000016992339402521438381_">
	<path class="st0" d="M226.5,67.3c5.8-1.1,12.1-0.9,18.5-1c8.9,0,17.9,0.2,26.8,0.2c23.1,0.2,46.2,0.4,69.3,0.6
		c28.7,0.2,57.4,0.5,86.2,0.7l47.4-56V6c-20.1,0-40.3,0.1-60.4,0.1c-41.5,0.1-83.1,0.1-124.6,0.1c-34.7,0-69.4,0.1-104.1-0.1
		c-9.7,0-19.5-1.4-28.3,3.4c-5,2.7-9.7,6.2-12.7,10.9c-3.7,5.8-4.5,12.9-4.4,19.8c0.2,15.9,0.3,31.8,0.3,47.7c0,38.7,0,77.4,0,116.1
		c0,39.7,0.1,79.5,0.1,119.2c0,13.6,0,27.3,0.1,40.9c0,13.4-2.1,28.4,5.5,40.1c2.5,3.9,5.7,7.7,10,9.9c8.9,4.6,20.9,2.4,30.8,2.4
		c6.9,0,13.8,0,20.6,0c18.2,0,36.5,0,54.7,0c44.1,0,88.1,0,132.2,0c22.9,0,45.9,0,68.8,0c11.4,0,22.8-0.4,34.2,0
		c9.5,0.3,18.4,1.4,27.1-3.4c15.5-8.5,13.3-24.6,13.3-39.1c0-15.6,0-31.2,0-46.8c0-39.1,0-78.2,0-117.3c0-18.8,0-37.6,0-56.4
		l-218.6,0.6l-40.1,45.5v8.2l196.8-1.2c0,33.3,0,66.6,0,100c0,10.4,1.8,23-1.5,32.9c-1.4,4.2-4.1,8.2-8.1,10.5
		c-5.7,3.3-12.3,2.4-18.7,2.4c-7.8-0.1-15.7,0.2-23.6,0.2c-15.7,0.1-31.4,0.2-47.1,0.2c-42.8,0.2-85.5,0.4-128.3,0.6
		c-9.8,0-22.6,2.5-31.4-1.6c-3.5-1.6-6.4-4.4-8.6-7.6c-8.3-12.2-4.9-30.3-4.9-44.1c0-16.7-0.1-33.4-0.1-50.1
		c-0.1-43.2-1.4-86.5-0.3-129.7c0.2-8.1-0.9-16.3-0.1-24.4c0.7-6.7,2.7-13.3,6.8-18.7C214.6,71.2,220.3,68.5,226.5,67.3z"/>
	<text transform="matrix(1.0415 0 0 1 140.1011 466.916)" class="st1 st2 st3">Growing With Ideas</text>
</g>
<g id="Layer_4">
	<path class="st4" d="M407.2,76.3v221c0,0.5-0.4,1-1,1h-43.9c0,0,0-31.7,0-33.5c0-23.8,0-47.6,0-71.5c0-21.5,0-43.1,0-64.6
		c0-5.4-0.1-10.8,0-16.2c0-0.6-0.5-1-1-1c-6.7,0.3-12.8,0.3-19.4,1.9c-38.1,9-67.2,35.1-82.2,69.4c-2,4.5-3.7,9-4.8,13.8
		c-5.6,23.7,2.8,53.9,18.9,72.5c9.8,11.3,22.9,21.5,36.2,28.7c9.9,5.4,21,9.2,32.4,9.8c8.6,0.5,17.4,0,26,0c0.6,0,1,0.4,1,1
		c0.1,12.2,0.3,24.4,0.3,36.6c0,0.5-0.5,1-1,1c-12.3-0.4-24.9-1.1-37-2.8c-10.5-1.4-20.7-4.3-30.5-8.3
		c-18.9-7.5-36.1-18.9-50.5-32.8c-8.6-8.4-16.3-17.6-22.7-27.7c-21.7-33.9-23.4-78.9-7.7-115.4c0.4-0.9,0.8-1.8,1.2-2.7
		c0.2-0.3,0.3-0.7,0.5-1c2.9-6.1,6.3-11.9,10.3-17.4c10.7-14.8,25-27.4,40.5-37.5c15.5-10.1,33-19.8,51.7-22.8
		c6.9-1.1,13.9-1.2,20.8-1.3C350.3,76.4,407.2,76.1,407.2,76.3z"/>
</g>
</svg>
